<svg width="900" height="1600" viewBox="0 0 900 1600" xmlns="http://www.w3.org/2000/svg">
<defs>
<filter id="glow4" x="-60%" y="-60%" width="220%" height="220%"><feGaussianBlur stdDeviation="12" result="b"/><feMerge><feMergeNode in="b"/><feMergeNode in="SourceGraphic"/></feMerge></filter>
<radialGradient id="lens" cx="0.4" cy="0.35" r="0.8"><stop offset="0" stop-color="#1c2418"/><stop offset="0.7" stop-color="#111710"/><stop offset="1" stop-color="#0b0f0a"/></radialGradient>
<linearGradient id="cam" x1="0" y1="0" x2="0" y2="1"><stop offset="0" stop-color="#151b12"/><stop offset="1" stop-color="#0f130d"/></linearGradient>
</defs>
<rect width="900" height="1600" fill="#0e120d"/>
<g stroke="#a9c79a" stroke-opacity="0.5" stroke-width="2">
<path d="M450 300 L450 180" /><path d="M330 340 L250 250" /><path d="M570 340 L650 250" /><path d="M280 460 L160 420" /><path d="M620 460 L740 420" />
</g>
<g filter="url(#glow4)">
<rect x="200" y="520" width="500" height="360" rx="40" fill="url(#cam)" stroke="#a9c79a" stroke-width="3"/>
</g>
<rect x="360" y="470" width="180" height="70" rx="16" fill="url(#cam)" stroke="#a9c79a" stroke-width="2.5"/>
<rect x="620" y="548" width="52" height="26" rx="8" fill="#a9c79a" fill-opacity="0.85"/>
<circle cx="253" cy="575" r="14" fill="none" stroke="#a9c79a" stroke-width="2" stroke-opacity="0.6"/>
<g filter="url(#glow4)">
<circle cx="450" cy="700" r="140" fill="url(#lens)" stroke="#a9c79a" stroke-width="3"/>
</g>
<circle cx="450" cy="700" r="112" fill="none" stroke="#a9c79a" stroke-opacity="0.5" stroke-width="1.5"/>
<g stroke="#a9c79a" stroke-width="2" fill="#141a11">
<path d="M450 618 L521 659 L521 741 L450 782 L379 741 L379 659 Z" fill-opacity="0.9"/>
</g>
<path d="M395 705 L445 665 L485 700 L520 672 L520 741 L450 782 L379 741 L379 715 Z" fill="#a9c79a" fill-opacity="0.35"/>
<circle cx="426" cy="664" r="12" fill="#a9c79a" fill-opacity="0.8"/>
<circle cx="450" cy="700" r="26" fill="none" stroke="#a9c79a" stroke-opacity="0.8" stroke-width="2"/>
<g fill="#a9c79a" fill-opacity="0.15" stroke="#a9c79a" stroke-opacity="0.4" stroke-width="1.5">
<rect x="230" y="1010" width="440" height="90" rx="10"/>
</g>
<g fill="#0e120d" stroke="#a9c79a" stroke-opacity="0.5" stroke-width="1.5">
<rect x="250" y="1030" width="60" height="50" rx="6"/><rect x="325" y="1030" width="60" height="50" rx="6"/><rect x="400" y="1030" width="60" height="50" rx="6"/><rect x="475" y="1030" width="60" height="50" rx="6"/><rect x="550" y="1030" width="60" height="50" rx="6"/>
</g>
<path d="M120 1360 L300 1180 L420 1300 L560 1140 L780 1360 Z" fill="none" stroke="#a9c79a" stroke-opacity="0.55" stroke-width="2.5" stroke-linejoin="round"/>
<circle cx="640" cy="1200" r="28" fill="none" stroke="#a9c79a" stroke-opacity="0.6" stroke-width="2"/>
<circle cx="180" cy="1450" r="5" fill="#a9c79a" fill-opacity="0.5"/>
<circle cx="720" cy="1470" r="4" fill="#a9c79a" fill-opacity="0.4"/>
</svg>
