<svg width="900" height="1600" viewBox="0 0 900 1600" xmlns="http://www.w3.org/2000/svg">
<defs>
<filter id="glow" x="-60%" y="-60%" width="220%" height="220%"><feGaussianBlur stdDeviation="14" result="b"/><feMerge><feMergeNode in="b"/><feMergeNode in="SourceGraphic"/></feMerge></filter>
<linearGradient id="scr" x1="0" y1="0" x2="0" y2="1"><stop offset="0" stop-color="#131a26"/><stop offset="1" stop-color="#0e1420"/></linearGradient>
</defs>
<rect width="900" height="1600" fill="#0d1118"/>
<g stroke="#6e9bff" stroke-opacity="0.06" stroke-width="1">
<path d="M0 200H900M0 400H900M0 600H900M0 800H900M0 1000H900M0 1200H900M0 1400H900"/>
<path d="M150 0V1600M300 0V1600M450 0V1600M600 0V1600M750 0V1600"/>
</g>
<text x="110" y="360" font-family="monospace" font-size="130" fill="#6e9bff" fill-opacity="0.10">&lt;/&gt;</text>
<text x="640" y="1370" font-family="monospace" font-size="110" fill="#6e9bff" fill-opacity="0.10">{ }</text>
<g filter="url(#glow)">
<rect x="285" y="470" width="330" height="660" rx="46" fill="url(#scr)" stroke="#6e9bff" stroke-width="3"/>
</g>
<rect x="395" y="492" width="110" height="14" rx="7" fill="#1c2635"/>
<g>
<rect x="320" y="540" width="72" height="72" rx="18" fill="#6e9bff" fill-opacity="0.9"/>
<rect x="414" y="540" width="72" height="72" rx="18" fill="#6e9bff" fill-opacity="0.35"/>
<rect x="508" y="540" width="72" height="72" rx="18" fill="#6e9bff" fill-opacity="0.55"/>
<rect x="320" y="634" width="72" height="72" rx="18" fill="#6e9bff" fill-opacity="0.25"/>
<rect x="414" y="634" width="72" height="72" rx="18" fill="#3a5fb8"/>
<rect x="508" y="634" width="72" height="72" rx="18" fill="#6e9bff" fill-opacity="0.45"/>
<rect x="320" y="728" width="72" height="72" rx="18" fill="#6e9bff" fill-opacity="0.5"/>
<rect x="414" y="728" width="72" height="72" rx="18" fill="#6e9bff" fill-opacity="0.2"/>
<rect x="508" y="728" width="72" height="72" rx="18" fill="#6e9bff" fill-opacity="0.75"/>
</g>
<rect x="320" y="836" width="260" height="130" rx="20" fill="#141c2b" stroke="#6e9bff" stroke-opacity="0.4" stroke-width="2"/>
<g fill="#6e9bff">
<rect x="344" y="866" width="40" height="40" rx="8" fill-opacity="0.9"/>
<rect x="392" y="886" width="40" height="20" rx="6" fill-opacity="0.5"/>
<rect x="440" y="876" width="40" height="30" rx="6" fill-opacity="0.7"/>
<rect x="488" y="856" width="40" height="50" rx="8" fill-opacity="0.35"/>
</g>
<rect x="380" y="1082" width="140" height="10" rx="5" fill="#1c2635"/>
<g filter="url(#glow)">
<rect x="180" y="560" width="80" height="80" rx="20" fill="none" stroke="#6e9bff" stroke-width="3" transform="rotate(-12 220 600)"/>
<rect x="650" y="920" width="96" height="96" rx="24" fill="none" stroke="#6e9bff" stroke-width="3" transform="rotate(15 698 968)"/>
<circle cx="680" cy="520" r="10" fill="#6e9bff"/>
<circle cx="215" cy="1030" r="8" fill="#6e9bff" fill-opacity="0.7"/>
</g>
</svg>
