<svg width="900" height="1600" viewBox="0 0 900 1600" xmlns="http://www.w3.org/2000/svg">
<defs>
<filter id="glow3" x="-60%" y="-60%" width="220%" height="220%"><feGaussianBlur stdDeviation="14" result="b"/><feMerge><feMergeNode in="b"/><feMergeNode in="SourceGraphic"/></feMerge></filter>
<radialGradient id="moon" cx="0.5" cy="0.5" r="0.5"><stop offset="0" stop-color="#f2c896" stop-opacity="0.9"/><stop offset="1" stop-color="#e08d4f" stop-opacity="0"/></radialGradient>
<linearGradient id="body" x1="0" y1="0" x2="0" y2="1"><stop offset="0" stop-color="#241408"/><stop offset="1" stop-color="#1b0f07"/></linearGradient>
</defs>
<rect width="900" height="1600" fill="#171009"/>
<circle cx="660" cy="330" r="200" fill="url(#moon)"/>
<circle cx="660" cy="330" r="110" fill="none" stroke="#e08d4f" stroke-opacity="0.6" stroke-width="2"/>
<g fill="#e08d4f">
<circle cx="150" cy="220" r="4"/><circle cx="260" cy="140" r="3" fill-opacity="0.7"/><circle cx="420" cy="250" r="3" fill-opacity="0.5"/><circle cx="790" cy="150" r="4" fill-opacity="0.8"/><circle cx="120" cy="420" r="3" fill-opacity="0.6"/><circle cx="820" cy="560" r="3" fill-opacity="0.5"/>
</g>
<path d="M0 1330 L180 1290 L340 1320 L560 1280 L760 1315 L900 1295 V1600 H0 Z" fill="#0f0a05"/>
<path d="M0 1330 L180 1290 L340 1320 L560 1280 L760 1315 L900 1295" fill="none" stroke="#e08d4f" stroke-opacity="0.35" stroke-width="2"/>
<g filter="url(#glow3)">
<circle cx="450" cy="1010" r="185" fill="url(#body)" stroke="#e08d4f" stroke-width="3"/>
<circle cx="450" cy="820" r="130" fill="url(#body)" stroke="#e08d4f" stroke-width="3"/>
</g>
<circle cx="450" cy="960" r="72" fill="#0d0803" stroke="#e08d4f" stroke-width="3"/>
<path d="M432 932 L492 960 L432 988 Z" fill="#e08d4f"/>
<rect x="428" y="480" width="44" height="290" fill="#1b0f07" stroke="#e08d4f" stroke-width="2.5"/>
<rect x="414" y="420" width="72" height="70" rx="8" fill="#1b0f07" stroke="#e08d4f" stroke-width="2.5"/>
<g fill="#e08d4f"><circle cx="428" cy="440" r="6"/><circle cx="472" cy="440" r="6"/><circle cx="428" cy="470" r="6"/><circle cx="472" cy="470" r="6"/></g>
<g stroke="#f2c896" stroke-width="1.6">
<path d="M436 490 V880 M444 490 V890 M452 490 V890 M460 490 V880"/>
<path d="M436 880 Q400 940 380 1000 M468 890 Q510 950 528 1005" stroke-opacity="0.8"/>
</g>
<g stroke="#e08d4f" stroke-width="1.4" stroke-opacity="0.6" fill="#e08d4f">
<path d="M300 700 H240 M240 700 V640" fill="none"/><circle cx="240" cy="640" r="5"/>
<path d="M600 720 H670 M670 720 V660" fill="none"/><circle cx="670" cy="660" r="5"/>
<path d="M310 1150 H250 M250 1150 V1210" fill="none"/><circle cx="250" cy="1210" r="5"/>
</g>
<g stroke="#e08d4f" stroke-width="3" stroke-linecap="round">
<path d="M180 950 q0 -30 0 -60" stroke-opacity="0.5"/>
<path d="M150 980 q0 -50 0 -100" stroke-opacity="0.7"/>
<path d="M120 1000 q0 -35 0 -70" stroke-opacity="0.4"/>
<path d="M760 980 q0 -45 0 -90" stroke-opacity="0.6"/>
<path d="M790 1000 q0 -30 0 -60" stroke-opacity="0.4"/>
<path d="M730 1010 q0 -60 0 -120" stroke-opacity="0.75"/>
</g>
</svg>
